<svg xmlns="http://www.w3.org/2000/svg" viewBox="0 0 800 280" width="800" height="280">
  <text x="400" y="28" font-family="monospace" font-size="14" fill="#64748b" text-anchor="middle" letter-spacing="3">ABOUT_ME</text>
  <line x1="320" y1="33" x2="365" y2="33" stroke="#334155" stroke-width="1"/>
  <line x1="435" y1="33" x2="480" y2="33" stroke="#334155" stroke-width="1"/>
  <rect x="42" y="52" width="720" height="200" rx="10" fill="#000000" opacity="0.25"/>
  <rect x="40" y="50" width="720" height="200" rx="10" fill="#161b27" stroke="#334155" stroke-width="1"/>
  <path d="M 50 50 L 750 50 A 10 10 0 0 1 760 60 L 760 80 L 40 80 L 40 60 A 10 10 0 0 1 50 50 Z" fill="#0f1420"/>
  <line x1="40" y1="80" x2="760" y2="80" stroke="#334155" stroke-width="1"/>
  <circle cx="60" cy="65" r="5" fill="#ef4444"/>
  <circle cx="78" cy="65" r="5" fill="#fbbf24"/>
  <circle cx="96" cy="65" r="5" fill="#22c55e"/>
  <text x="400" y="69" font-family="monospace" font-size="11" fill="#94a3b8" text-anchor="middle">profil.js</text>
  <rect x="40" y="80" width="36" height="170" fill="#0f1420"/>
  <line x1="76" y1="80" x2="76" y2="250" stroke="#334155" stroke-width="0.5"/>
  <text x="58" y="110" font-family="monospace" font-size="10" fill="#475569" text-anchor="middle">1</text>
  <text x="58" y="135" font-family="monospace" font-size="10" fill="#475569" text-anchor="middle">2</text>
  <text x="58" y="160" font-family="monospace" font-size="10" fill="#475569" text-anchor="middle">3</text>
  <text x="58" y="185" font-family="monospace" font-size="10" fill="#475569" text-anchor="middle">4</text>
  <text x="58" y="210" font-family="monospace" font-size="10" fill="#475569" text-anchor="middle">5</text>
  <text x="90" y="112" font-family="monospace" font-size="13" fill="#818cf8">const</text>
  <text x="135" y="112" font-family="monospace" font-size="13" fill="#f1f5f9">profil</text>
  <text x="190" y="112" font-family="monospace" font-size="13" fill="#818cf8">=</text>
  <text x="205" y="112" font-family="monospace" font-size="13" fill="#f1f5f9">{</text>
  <text x="110" y="137" font-family="monospace" font-size="13" fill="#6ee7b7">status:</text>
  <text x="180" y="137" font-family="monospace" font-size="13" fill="#fbbf24">"Recherche une alternance pour 2026"</text>
  <text x="468" y="137" font-family="monospace" font-size="13" fill="#f1f5f9">,</text>
  <text x="110" y="162" font-family="monospace" font-size="13" fill="#6ee7b7">recherche:</text>
  <text x="200" y="162" font-family="monospace" font-size="13" fill="#fbbf24">"Administration réseaux et systèmes / Dev / Cyber"</text>
  <text x="580" y="162" font-family="monospace" font-size="13" fill="#f1f5f9">,</text>
  <text x="110" y="187" font-family="monospace" font-size="13" fill="#6ee7b7">atouts:</text>
  <text x="180" y="187" font-family="monospace" font-size="13" fill="#f1f5f9">[</text>
  <text x="190" y="187" font-family="monospace" font-size="13" fill="#fbbf24">"motivation"</text>
  <text x="288" y="187" font-family="monospace" font-size="13" fill="#f1f5f9">,</text>
  <text x="300" y="187" font-family="monospace" font-size="13" fill="#fbbf24">"communication"</text>
  <text x="420" y="187" font-family="monospace" font-size="13" fill="#f1f5f9">,</text>
  <text x="432" y="187" font-family="monospace" font-size="13" fill="#fbbf24">"intégration"</text>
  <text x="536" y="187" font-family="monospace" font-size="13" fill="#f1f5f9">,</text>
  <text x="548" y="187" font-family="monospace" font-size="13" fill="#fbbf24">"curiosité"</text>
  <text x="638" y="187" font-family="monospace" font-size="13" fill="#f1f5f9">]</text>
  <text x="90" y="212" font-family="monospace" font-size="13" fill="#f1f5f9">};</text>
</svg>
