<svg xmlns="http://www.w3.org/2000/svg" viewBox="0 0 800 620" width="800" height="620">
  <defs>
    <linearGradient id="lineGrad" x1="400" y1="20" x2="400" y2="560" gradientUnits="userSpaceOnUse">
      <stop offset="0%" stop-color="#6ee7b7"/>
      <stop offset="100%" stop-color="#818cf8"/>
    </linearGradient>
  </defs>

  <rect width="800" height="620" fill="#0d1117" rx="12"/>

  <line x1="400" y1="20" x2="400" y2="560" stroke="url(#lineGrad)" stroke-width="2" stroke-dasharray="4 3" opacity="0.5"/>

  <circle cx="400" cy="60" r="7" fill="#6ee7b7"/>
  <rect x="420" y="30" width="340" height="70" rx="10" fill="#161b27" stroke="#6ee7b7" stroke-width="1" opacity="0.9"/>
  <text x="436" y="50" font-family="monospace" font-size="11" fill="#6ee7b7">2027 → 2029</text>
  <rect x="510" y="37" width="70" height="16" rx="8" fill="#052e1a"/>
  <text x="521" y="49" font-family="monospace" font-size="9" fill="#6ee7b7">OBJECTIF</text>
  <text x="436" y="68" font-family="monospace" font-size="13" fill="#f1f5f9" font-weight="bold">Master E3IN</text>
  <text x="436" y="84" font-family="monospace" font-size="10" fill="#94a3b8">ESIEE-IT · Expert Cybersécurité · Alternance 2 ans</text>

  <circle cx="400" cy="170" r="7" fill="#818cf8"/>
  <rect x="40" y="140" width="340" height="70" rx="10" fill="#161b27" stroke="#818cf8" stroke-width="1" opacity="0.9"/>
  <text x="56" y="160" font-family="monospace" font-size="11" fill="#818cf8">2026 → 2027</text>
  <rect x="165" y="147" width="85" height="16" rx="8" fill="#1a1040"/>
  <text x="172" y="159" font-family="monospace" font-size="9" fill="#818cf8">EN RECHERCHE 📩</text>
  <text x="56" y="178" font-family="monospace" font-size="13" fill="#f1f5f9" font-weight="bold">Bachelor 3 DSNS</text>
  <text x="56" y="194" font-family="monospace" font-size="10" fill="#94a3b8">ESIEE-IT · Dév. Numérique Sécurisé · Alternance 1 an</text>

  <circle cx="400" cy="280" r="7" fill="#fbbf24"/>
  <rect x="420" y="250" width="340" height="70" rx="10" fill="#161b27" stroke="#fbbf24" stroke-width="1" opacity="0.9"/>
  <text x="436" y="270" font-family="monospace" font-size="11" fill="#fbbf24">2023 → 2024</text>
  <rect x="530" y="257" width="60" height="16" rx="8" fill="#2a1a00"/>
  <text x="540" y="269" font-family="monospace" font-size="9" fill="#fbbf24">TERMINÉ</text>
  <text x="436" y="288" font-family="monospace" font-size="13" fill="#f1f5f9" font-weight="bold">Titre Pro DWWM — Bac+2</text>
  <text x="436" y="304" font-family="monospace" font-size="10" fill="#94a3b8">O'Clock · Développeur Fullstack · 8 mois bootcamp</text>

  <circle cx="400" cy="390" r="7" fill="#64748b"/>
  <rect x="40" y="360" width="340" height="70" rx="10" fill="#161b27" stroke="#334155" stroke-width="1" opacity="0.9"/>
  <text x="56" y="380" font-family="monospace" font-size="11" fill="#94a3b8">2005 → 2023</text>
  <rect x="165" y="367" width="60" height="16" rx="8" fill="#1a1f2e"/>
  <text x="175" y="379" font-family="monospace" font-size="9" fill="#64748b">TERMINÉ</text>
  <text x="56" y="398" font-family="monospace" font-size="13" fill="#f1f5f9" font-weight="bold">Électrotechnicien Industriel</text>
  <text x="56" y="414" font-family="monospace" font-size="10" fill="#94a3b8">EJ Picardie · 18 ans terrain · Reconversion RQTH</text>

  <text x="400" y="580" font-family="monospace" font-size="10" fill="#334155" text-anchor="middle">anthony-faria-dos-santos · parcours</text>
</svg>
